<svg width="96" height="11" viewBox="0 0 96 11" fill="none" xmlns="http://www.w3.org/2000/svg">
<path d="M0.6 0.599999V9H4.236C4.548 9 4.788 8.76 4.788 8.448V1.164C4.788 0.852 4.548 0.599999 4.236 0.599999H0.6ZM3.396 7.608H1.992V2.004H3.396V7.608ZM10.2023 2.004V0.599999H6.55434C6.24234 0.599999 6.00234 0.852 6.00234 1.164V8.448C6.00234 8.76 6.24234 9 6.55434 9H10.1903V7.608H7.39434V5.508H10.1903V4.104H7.39434V2.004H10.2023ZM15.5927 2.004V0.599999H11.9567C11.6447 0.599999 11.4047 0.852 11.4047 1.164V4.944C11.4047 5.244 11.6447 5.496 11.9567 5.496H14.2007V7.608H11.4047V9H15.0407C15.3527 9 15.5927 8.76 15.5927 8.448V4.656C15.5927 4.356 15.3527 4.104 15.0407 4.104H12.7967V2.004H15.5927ZM18.199 9V0.599999H16.807V9H18.199ZM23.5966 2.208V1.164C23.5966 0.852 23.3566 0.599999 23.0446 0.599999H19.4086V9H23.0446C23.3566 9 23.5966 8.76 23.5966 8.448V4.908H21.4966V6.312C21.7366 6.3 21.9766 6.264 22.2046 6.216V7.608H20.8006V2.004H22.2046V3.432C22.8046 3.216 23.3086 2.772 23.5966 2.208ZM27.6069 0.599999V4.812L26.3349 0.983999C26.2509 0.756 26.0469 0.599999 25.8069 0.599999H24.8109V9H26.2029V4.8L27.4749 8.628C27.5589 8.856 27.7629 9 28.0029 9H28.9989V0.599999H27.6069ZM36.7583 0.624C36.7223 0.611999 36.6743 0.599999 36.6383 0.599999H33.5543C33.2423 0.599999 33.0023 0.852 33.0023 1.164V9H37.1903V6.888L36.5663 5.7C36.8183 5.412 37.0343 5.1 37.1903 4.764V1.164C37.1903 0.9 37.0103 0.684 36.7583 0.624ZM34.3943 2.004H35.7983V4.404C35.4743 4.92 34.9823 5.316 34.3943 5.508V2.004ZM35.7983 7.608H34.3943V6.96C34.8263 6.876 35.2223 6.708 35.5943 6.504L35.7983 6.888V7.608ZM42.0047 0.599999L40.6007 3.408L39.1967 0.599999H37.8047L39.9047 4.8V9H41.2967V4.8L43.3967 0.599999H42.0047ZM46.7953 0.599999V9H50.4313C50.7433 9 50.9833 8.76 50.9833 8.448V1.164C50.9833 0.852 50.7433 0.599999 50.4313 0.599999H46.7953ZM49.5913 7.608H48.1873V2.004H49.5913V7.608ZM56.3977 2.004V0.599999H52.7497C52.4377 0.599999 52.1977 0.852 52.1977 1.164V8.448C52.1977 8.76 52.4377 9 52.7497 9H56.3857V7.608H53.5897V5.508H56.3857V4.104H53.5897V2.004H56.3977ZM61.788 2.004V0.599999H58.152C57.84 0.599999 57.6 0.852 57.6 1.164V4.944C57.6 5.244 57.84 5.496 58.152 5.496H60.396V7.608H57.6V9H61.236C61.548 9 61.788 8.76 61.788 8.448V4.656C61.788 4.356 61.548 4.104 61.236 4.104H58.992V2.004H61.788ZM66.7583 0.624C66.7223 0.611999 66.6743 0.599999 66.6383 0.599999H63.5543C63.2423 0.599999 63.0023 0.852 63.0023 1.164V9H64.3943V6.96C64.9103 6.852 65.3783 6.648 65.7983 6.372V9H67.2023V1.164C67.2023 0.9 67.0103 0.684 66.7583 0.624ZM64.3943 5.508V2.004H65.7983V4.404C65.4743 4.92 64.9823 5.316 64.3943 5.508ZM72.1607 0.624C72.1247 0.611999 72.0767 0.599999 72.0407 0.599999H68.4047V9.012H69.7967V6.96C70.2287 6.876 70.6247 6.708 70.9967 6.504L71.2007 6.888V9.012H72.6047V6.888L71.9687 5.7C72.2207 5.412 72.4367 5.1 72.6047 4.764V1.164C72.5927 0.9 72.4127 0.684 72.1607 0.624ZM69.7967 2.004H71.2007V4.404C70.8767 4.92 70.3847 5.316 69.7967 5.508V2.004ZM79.399 0.599999H73.807V2.004H75.907V9H77.299V2.004H79.399V0.599999Z" fill="#838383"/>
<path d="M95.8839 7.647L95.8916 5.17928L95.9036 1.30207C95.9047 0.919969 95.6736 0.54337 95.3078 0.330845L95.0296 0.168973C94.6627 -0.043552 94.2234 -0.056766 93.8949 0.135938L90.3954 2.1808L88.4381 3.32492C88.1643 3.48459 88.0033 3.76648 88.0022 4.08362L88 4.67385C87.9989 5.05595 88.23 5.43255 88.5958 5.64507L90.4622 6.72862L90.598 6.72091L91.4819 6.66586L91.8762 7.462L91.9365 7.58423L93.8029 8.66778C94.1698 8.8803 94.609 8.89352 94.9376 8.70191L95.4458 8.4046C95.7207 8.24603 95.8828 7.96413 95.8839 7.647Z" fill="#838383"/>
</svg>
